<svg width="1051" height="801" viewBox="0 0 1051 801" fill="none" xmlns="http://www.w3.org/2000/svg">
<path d="M979.368 678.848C979.368 690.216 970.153 699.432 958.785 699.432C947.417 699.432 938.201 690.216 938.201 678.848C938.201 667.48 947.417 658.265 958.785 658.265C970.153 658.265 979.368 667.48 979.368 678.848Z" fill="#E9EFFF"/>
<path d="M569.343 375.034C569.343 386.402 560.127 395.617 548.759 395.617C537.391 395.617 528.176 386.402 528.176 375.034C528.176 363.666 537.391 354.45 548.759 354.45C560.127 354.45 569.343 363.666 569.343 375.034Z" fill="#E9EFFF"/>
<path d="M774.356 526.941C774.356 538.309 765.14 547.525 753.772 547.525C742.404 547.525 733.189 538.309 733.189 526.941C733.189 515.573 742.404 506.357 753.772 506.357C765.14 506.357 774.356 515.573 774.356 526.941Z" fill="#E9EFFF"/>
<path d="M364.33 223.127C364.33 234.495 355.115 243.71 343.747 243.71C332.379 243.71 323.163 234.495 323.163 223.127C323.163 211.759 332.379 202.543 343.747 202.543C355.115 202.543 364.33 211.759 364.33 223.127Z" fill="#E9EFFF"/>
<path d="M958.785 729.484C958.785 740.852 949.57 750.068 938.202 750.068C926.834 750.068 917.618 740.852 917.618 729.484C917.618 718.116 926.834 708.9 938.202 708.9C949.57 708.9 958.785 718.116 958.785 729.484Z" fill="#E9EFFF"/>
<path d="M548.759 425.67C548.759 437.038 539.544 446.253 528.176 446.253C516.808 446.253 507.592 437.038 507.592 425.67C507.592 414.302 516.808 405.086 528.176 405.086C539.544 405.086 548.759 414.302 548.759 425.67Z" fill="#E9EFFF"/>
<path d="M753.773 577.577C753.773 588.945 744.557 598.16 733.189 598.16C721.821 598.16 712.605 588.945 712.605 577.577C712.605 566.209 721.821 556.993 733.189 556.993C744.557 556.993 753.773 566.209 753.773 577.577Z" fill="#E9EFFF"/>
<path d="M343.747 273.762C343.747 285.13 334.531 294.346 323.163 294.346C311.795 294.346 302.58 285.13 302.58 273.762C302.58 262.394 311.795 253.179 323.163 253.179C334.531 253.179 343.747 262.394 343.747 273.762Z" fill="#E9EFFF"/>
<path d="M1015.18 729.484C1015.18 740.852 1005.97 750.068 994.601 750.068C983.233 750.068 974.017 740.852 974.017 729.484C974.017 718.116 983.233 708.9 994.601 708.9C1005.97 708.9 1015.18 718.116 1015.18 729.484Z" fill="#E9EFFF"/>
<path d="M605.158 425.67C605.158 437.038 595.943 446.253 584.575 446.253C573.207 446.253 563.991 437.038 563.991 425.67C563.991 414.302 573.207 405.086 584.575 405.086C595.943 405.086 605.158 414.302 605.158 425.67Z" fill="#E9EFFF"/>
<path d="M810.172 577.577C810.172 588.945 800.956 598.16 789.588 598.16C778.22 598.16 769.004 588.945 769.004 577.577C769.004 566.209 778.22 556.993 789.588 556.993C800.956 556.993 810.172 566.209 810.172 577.577Z" fill="#E9EFFF"/>
<path d="M400.146 273.762C400.146 285.13 390.93 294.346 379.562 294.346C368.194 294.346 358.979 285.13 358.979 273.762C358.979 262.394 368.194 253.179 379.562 253.179C390.93 253.179 400.146 262.394 400.146 273.762Z" fill="#E9EFFF"/>
<path d="M938.202 780.12C938.202 791.488 928.986 800.703 917.618 800.703C906.25 800.703 897.035 791.488 897.035 780.12C897.035 768.752 906.25 759.536 917.618 759.536C928.986 759.536 938.202 768.752 938.202 780.12Z" fill="#E9EFFF"/>
<path d="M528.176 476.305C528.176 487.673 518.96 496.889 507.592 496.889C496.224 496.889 487.009 487.673 487.009 476.305C487.009 464.937 496.224 455.722 507.592 455.722C518.96 455.722 528.176 464.937 528.176 476.305Z" fill="#E9EFFF"/>
<path d="M733.189 628.213C733.189 639.581 723.973 648.796 712.605 648.796C701.237 648.796 692.021 639.581 692.021 628.213C692.021 616.845 701.237 607.629 712.605 607.629C723.973 607.629 733.189 616.845 733.189 628.213Z" fill="#E9EFFF"/>
<path d="M323.163 324.398C323.163 335.766 313.947 344.982 302.579 344.982C291.211 344.982 281.996 335.766 281.996 324.398C281.996 313.03 291.211 303.814 302.579 303.814C313.947 303.814 323.163 313.03 323.163 324.398Z" fill="#E9EFFF"/>
<path d="M1051 780.12C1051 791.488 1041.78 800.703 1030.42 800.703C1019.05 800.703 1009.83 791.488 1009.83 780.12C1009.83 768.752 1019.05 759.536 1030.42 759.536C1041.78 759.536 1051 768.752 1051 780.12Z" fill="#E9EFFF"/>
<path d="M640.974 476.305C640.974 487.673 631.758 496.889 620.39 496.889C609.022 496.889 599.807 487.673 599.807 476.305C599.807 464.937 609.022 455.722 620.39 455.722C631.758 455.722 640.974 464.937 640.974 476.305Z" fill="#E9EFFF"/>
<path d="M845.987 628.213C845.987 639.581 836.772 648.796 825.404 648.796C814.036 648.796 804.82 639.581 804.82 628.213C804.82 616.845 814.036 607.629 825.404 607.629C836.772 607.629 845.987 616.845 845.987 628.213Z" fill="#E9EFFF"/>
<path d="M435.961 324.398C435.961 335.766 426.746 344.982 415.378 344.982C404.01 344.982 394.794 335.766 394.794 324.398C394.794 313.03 404.01 303.814 415.378 303.814C426.746 303.814 435.961 313.03 435.961 324.398Z" fill="#E9EFFF"/>
<path d="M1035.77 678.848C1035.77 690.216 1026.55 699.432 1015.18 699.432C1003.82 699.432 994.601 690.216 994.601 678.848C994.601 667.48 1003.82 658.265 1015.18 658.265C1026.55 658.265 1035.77 667.48 1035.77 678.848Z" fill="#E9EFFF"/>
<path d="M625.742 375.034C625.742 386.402 616.527 395.617 605.159 395.617C593.791 395.617 584.575 386.402 584.575 375.034C584.575 363.666 593.791 354.45 605.159 354.45C616.527 354.45 625.742 363.666 625.742 375.034Z" fill="#E9EFFF"/>
<path d="M830.755 526.941C830.755 538.309 821.539 547.525 810.171 547.525C798.803 547.525 789.588 538.309 789.588 526.941C789.588 515.573 798.803 506.357 810.171 506.357C821.539 506.357 830.755 515.573 830.755 526.941Z" fill="#E9EFFF"/>
<path d="M420.729 223.127C420.729 234.495 411.514 243.71 400.146 243.71C388.778 243.71 379.562 234.495 379.562 223.127C379.562 211.759 388.778 202.543 400.146 202.543C411.514 202.543 420.729 211.759 420.729 223.127Z" fill="#E9EFFF"/>
<path d="M1009.83 628.213C1009.83 639.581 1000.62 648.796 989.249 648.796C977.881 648.796 968.665 639.581 968.665 628.213C968.665 616.845 977.881 607.629 989.249 607.629C1000.62 607.629 1009.83 616.845 1009.83 628.213Z" fill="#E9EFFF"/>
<path d="M599.807 324.398C599.807 335.766 590.591 344.982 579.223 344.982C567.855 344.982 558.639 335.766 558.639 324.398C558.639 313.03 567.855 303.814 579.223 303.814C590.591 303.814 599.807 313.03 599.807 324.398Z" fill="#E9EFFF"/>
<path d="M804.82 476.305C804.82 487.673 795.604 496.889 784.236 496.889C772.868 496.889 763.653 487.673 763.653 476.305C763.653 464.937 772.868 455.722 784.236 455.722C795.604 455.722 804.82 464.937 804.82 476.305Z" fill="#E9EFFF"/>
<path d="M394.794 172.491C394.794 183.859 385.578 193.074 374.21 193.074C362.842 193.074 353.627 183.859 353.627 172.491C353.627 161.123 362.842 151.907 374.21 151.907C385.578 151.907 394.794 161.123 394.794 172.491Z" fill="#E9EFFF"/>
<path d="M974.017 577.577C974.017 588.945 964.802 598.16 953.434 598.16C942.066 598.16 932.85 588.945 932.85 577.577C932.85 566.209 942.066 556.993 953.434 556.993C964.802 556.993 974.017 566.209 974.017 577.577Z" fill="#E9EFFF"/>
<path d="M563.992 273.762C563.992 285.13 554.776 294.346 543.408 294.346C532.04 294.346 522.824 285.13 522.824 273.762C522.824 262.394 532.04 253.179 543.408 253.179C554.776 253.179 563.992 262.394 563.992 273.762Z" fill="#E9EFFF"/>
<path d="M769.004 425.67C769.004 437.038 759.789 446.253 748.421 446.253C737.053 446.253 727.837 437.038 727.837 425.67C727.837 414.302 737.053 405.086 748.421 405.086C759.789 405.086 769.004 414.302 769.004 425.67Z" fill="#E9EFFF"/>
<path d="M358.978 121.855C358.978 133.223 349.763 142.439 338.395 142.439C327.027 142.439 317.811 133.223 317.811 121.855C317.811 110.487 327.027 101.271 338.395 101.271C349.763 101.271 358.978 110.487 358.978 121.855Z" fill="#E9EFFF"/>
<path d="M999.952 526.941C999.952 538.309 990.737 547.525 979.369 547.525C968.001 547.525 958.785 538.309 958.785 526.941C958.785 515.573 968.001 506.357 979.369 506.357C990.737 506.357 999.952 515.573 999.952 526.941Z" fill="#E9EFFF"/>
<path d="M589.927 223.127C589.927 234.495 580.711 243.71 569.343 243.71C557.975 243.71 548.76 234.495 548.76 223.127C548.76 211.759 557.975 202.543 569.343 202.543C580.711 202.543 589.927 211.759 589.927 223.127Z" fill="#E9EFFF"/>
<path d="M794.94 375.034C794.94 386.402 785.724 395.617 774.356 395.617C762.988 395.617 753.772 386.402 753.772 375.034C753.772 363.666 762.988 354.45 774.356 354.45C785.724 354.45 794.94 363.666 794.94 375.034Z" fill="#E9EFFF"/>
<path d="M384.914 71.2194C384.914 82.5874 375.698 91.803 364.33 91.803C352.962 91.803 343.746 82.5874 343.746 71.2194C343.746 59.8513 352.962 50.6357 364.33 50.6357C375.698 50.6357 384.914 59.8513 384.914 71.2194Z" fill="#E9EFFF"/>
<path d="M979.368 476.305C979.368 487.673 970.153 496.889 958.785 496.889C947.417 496.889 938.201 487.673 938.201 476.305C938.201 464.937 947.417 455.722 958.785 455.722C970.153 455.722 979.368 464.937 979.368 476.305Z" fill="#E9EFFF"/>
<path d="M569.343 172.491C569.343 183.859 560.127 193.074 548.759 193.074C537.391 193.074 528.176 183.859 528.176 172.491C528.176 161.123 537.391 151.907 548.759 151.907C560.127 151.907 569.343 161.123 569.343 172.491Z" fill="#E9EFFF"/>
<path d="M774.356 324.398C774.356 335.766 765.14 344.982 753.772 344.982C742.404 344.982 733.189 335.766 733.189 324.398C733.189 313.03 742.404 303.814 753.772 303.814C765.14 303.814 774.356 313.03 774.356 324.398Z" fill="#E9EFFF"/>
<path d="M364.33 20.5836C364.33 31.9516 355.115 41.1673 343.747 41.1673C332.379 41.1673 323.163 31.9516 323.163 20.5836C323.163 9.2156 332.379 0 343.747 0C355.115 0 364.33 9.2156 364.33 20.5836Z" fill="#E9EFFF"/>
<path d="M953.433 628.213C953.433 639.581 944.218 648.796 932.85 648.796C921.482 648.796 912.266 639.581 912.266 628.213C912.266 616.845 921.482 607.629 932.85 607.629C944.218 607.629 953.433 616.845 953.433 628.213Z" fill="#E9EFFF"/>
<path d="M543.408 324.398C543.408 335.766 534.192 344.982 522.824 344.982C511.456 344.982 502.24 335.766 502.24 324.398C502.24 313.03 511.456 303.814 522.824 303.814C534.192 303.814 543.408 313.03 543.408 324.398Z" fill="#E9EFFF"/>
<path d="M748.421 476.305C748.421 487.673 739.205 496.889 727.837 496.889C716.469 496.889 707.254 487.673 707.254 476.305C707.254 464.937 716.469 455.722 727.837 455.722C739.205 455.722 748.421 464.937 748.421 476.305Z" fill="#E9EFFF"/>
<path d="M338.395 172.491C338.395 183.859 329.179 193.074 317.811 193.074C306.443 193.074 297.228 183.859 297.228 172.491C297.228 161.123 306.443 151.907 317.811 151.907C329.179 151.907 338.395 161.123 338.395 172.491Z" fill="#E9EFFF"/>
<path d="M917.618 577.577C917.618 588.945 908.402 598.16 897.034 598.16C885.666 598.16 876.451 588.945 876.451 577.577C876.451 566.209 885.666 556.993 897.034 556.993C908.402 556.993 917.618 566.209 917.618 577.577Z" fill="#E9EFFF"/>
<path d="M507.592 273.762C507.592 285.13 498.376 294.346 487.008 294.346C475.64 294.346 466.425 285.13 466.425 273.762C466.425 262.394 475.64 253.179 487.008 253.179C498.376 253.179 507.592 262.394 507.592 273.762Z" fill="#E9EFFF"/>
<path d="M712.605 425.67C712.605 437.038 703.39 446.253 692.022 446.253C680.654 446.253 671.438 437.038 671.438 425.67C671.438 414.302 680.654 405.086 692.022 405.086C703.39 405.086 712.605 414.302 712.605 425.67Z" fill="#E9EFFF"/>
<path d="M302.579 121.855C302.579 133.223 293.364 142.439 281.996 142.439C270.628 142.439 261.412 133.223 261.412 121.855C261.412 110.487 270.628 101.271 281.996 101.271C293.364 101.271 302.579 110.487 302.579 121.855Z" fill="#E9EFFF"/>
<path d="M943.554 526.941C943.554 538.309 934.338 547.525 922.97 547.525C911.602 547.525 902.386 538.309 902.386 526.941C902.386 515.573 911.602 506.357 922.97 506.357C934.338 506.357 943.554 515.573 943.554 526.941Z" fill="#E9EFFF"/>
<path d="M533.527 223.127C533.527 234.495 524.312 243.71 512.944 243.71C501.576 243.71 492.36 234.495 492.36 223.127C492.36 211.759 501.576 202.543 512.944 202.543C524.312 202.543 533.527 211.759 533.527 223.127Z" fill="#E9EFFF"/>
<path d="M738.54 375.034C738.54 386.402 729.325 395.617 717.957 395.617C706.589 395.617 697.373 386.402 697.373 375.034C697.373 363.666 706.589 354.45 717.957 354.45C729.325 354.45 738.54 363.666 738.54 375.034Z" fill="#E9EFFF"/>
<path d="M328.515 71.2194C328.515 82.5874 319.299 91.803 307.931 91.803C296.563 91.803 287.347 82.5874 287.347 71.2194C287.347 59.8513 296.563 50.6357 307.931 50.6357C319.299 50.6357 328.515 59.8513 328.515 71.2194Z" fill="#E9EFFF"/>
<path d="M922.97 476.305C922.97 487.673 913.754 496.889 902.386 496.889C891.018 496.889 881.802 487.673 881.802 476.305C881.802 464.937 891.018 455.722 902.386 455.722C913.754 455.722 922.97 464.937 922.97 476.305Z" fill="#E9EFFF"/>
<path d="M512.944 172.491C512.944 183.859 503.728 193.074 492.36 193.074C480.992 193.074 471.776 183.859 471.776 172.491C471.776 161.123 480.992 151.907 492.36 151.907C503.728 151.907 512.944 161.123 512.944 172.491Z" fill="#E9EFFF"/>
<path d="M717.957 324.398C717.957 335.766 708.742 344.982 697.374 344.982C686.006 344.982 676.79 335.766 676.79 324.398C676.79 313.03 686.006 303.814 697.374 303.814C708.742 303.814 717.957 313.03 717.957 324.398Z" fill="#E9EFFF"/>
<path d="M307.931 20.5836C307.931 31.9516 298.716 41.1673 287.348 41.1673C275.98 41.1673 266.764 31.9516 266.764 20.5836C266.764 9.2156 275.98 0 287.348 0C298.716 0 307.931 9.2156 307.931 20.5836Z" fill="#E9EFFF"/>
<path d="M897.034 628.213C897.034 639.581 887.819 648.796 876.451 648.796C865.083 648.796 855.867 639.581 855.867 628.213C855.867 616.845 865.083 607.629 876.451 607.629C887.819 607.629 897.034 616.845 897.034 628.213Z" fill="#E9EFFF"/>
<path d="M487.009 324.398C487.009 335.766 477.793 344.982 466.425 344.982C455.057 344.982 445.841 335.766 445.841 324.398C445.841 313.03 455.057 303.814 466.425 303.814C477.793 303.814 487.009 313.03 487.009 324.398Z" fill="#E9EFFF"/>
<path d="M692.022 476.305C692.022 487.673 682.806 496.889 671.438 496.889C660.07 496.889 650.855 487.673 650.855 476.305C650.855 464.937 660.07 455.722 671.438 455.722C682.806 455.722 692.022 464.937 692.022 476.305Z" fill="#E9EFFF"/>
<path d="M281.995 172.491C281.995 183.859 272.78 193.074 261.412 193.074C250.044 193.074 240.828 183.859 240.828 172.491C240.828 161.123 250.044 151.907 261.412 151.907C272.78 151.907 281.995 161.123 281.995 172.491Z" fill="#E9EFFF"/>
<path d="M861.219 577.577C861.219 588.945 852.003 598.16 840.635 598.16C829.267 598.16 820.052 588.945 820.052 577.577C820.052 566.209 829.267 556.993 840.635 556.993C852.003 556.993 861.219 566.209 861.219 577.577Z" fill="#E9EFFF"/>
<path d="M451.193 273.762C451.193 285.13 441.977 294.346 430.609 294.346C419.241 294.346 410.026 285.13 410.026 273.762C410.026 262.394 419.241 253.179 430.609 253.179C441.977 253.179 451.193 262.394 451.193 273.762Z" fill="#E9EFFF"/>
<path d="M656.206 425.67C656.206 437.038 646.991 446.253 635.623 446.253C624.255 446.253 615.039 437.038 615.039 425.67C615.039 414.302 624.255 405.086 635.623 405.086C646.991 405.086 656.206 414.302 656.206 425.67Z" fill="#E9EFFF"/>
<path d="M246.18 121.855C246.18 133.223 236.965 142.439 225.597 142.439C214.229 142.439 205.013 133.223 205.013 121.855C205.013 110.487 214.229 101.271 225.597 101.271C236.965 101.271 246.18 110.487 246.18 121.855Z" fill="#E9EFFF"/>
<path d="M887.154 526.941C887.154 538.309 877.938 547.525 866.57 547.525C855.202 547.525 845.987 538.309 845.987 526.941C845.987 515.573 855.202 506.357 866.57 506.357C877.938 506.357 887.154 515.573 887.154 526.941Z" fill="#E9EFFF"/>
<path d="M477.128 223.127C477.128 234.495 467.913 243.71 456.545 243.71C445.177 243.71 435.961 234.495 435.961 223.127C435.961 211.759 445.177 202.543 456.545 202.543C467.913 202.543 477.128 211.759 477.128 223.127Z" fill="#E9EFFF"/>
<path d="M682.141 375.034C682.141 386.402 672.926 395.617 661.558 395.617C650.19 395.617 640.974 386.402 640.974 375.034C640.974 363.666 650.19 354.45 661.558 354.45C672.926 354.45 682.141 363.666 682.141 375.034Z" fill="#E9EFFF"/>
<path d="M272.116 71.2194C272.116 82.5874 262.9 91.803 251.532 91.803C240.164 91.803 230.948 82.5874 230.948 71.2194C230.948 59.8513 240.164 50.6357 251.532 50.6357C262.9 50.6357 272.116 59.8513 272.116 71.2194Z" fill="#E9EFFF"/>
<path d="M866.571 476.305C866.571 487.673 857.355 496.889 845.987 496.889C834.619 496.889 825.403 487.673 825.403 476.305C825.403 464.937 834.619 455.722 845.987 455.722C857.355 455.722 866.571 464.937 866.571 476.305Z" fill="#E9EFFF"/>
<path d="M456.545 172.491C456.545 183.859 447.329 193.074 435.961 193.074C424.593 193.074 415.378 183.859 415.378 172.491C415.378 161.123 424.593 151.907 435.961 151.907C447.329 151.907 456.545 161.123 456.545 172.491Z" fill="#E9EFFF"/>
<path d="M661.557 324.398C661.557 335.766 652.342 344.982 640.974 344.982C629.606 344.982 620.39 335.766 620.39 324.398C620.39 313.03 629.606 303.814 640.974 303.814C652.342 303.814 661.557 313.03 661.557 324.398Z" fill="#E9EFFF"/>
<path d="M251.532 20.5836C251.532 31.9516 242.316 41.1673 230.948 41.1673C219.58 41.1673 210.364 31.9516 210.364 20.5836C210.364 9.2156 219.58 0 230.948 0C242.316 0 251.532 9.2156 251.532 20.5836Z" fill="#E9EFFF"/>
<path d="M810.172 678.848C810.172 690.216 800.956 699.432 789.588 699.432C778.22 699.432 769.004 690.216 769.004 678.848C769.004 667.48 778.22 658.265 789.588 658.265C800.956 658.265 810.172 667.48 810.172 678.848Z" fill="#E9EFFF"/>
<path d="M400.146 375.034C400.146 386.402 390.93 395.617 379.562 395.617C368.194 395.617 358.979 386.402 358.979 375.034C358.979 363.666 368.194 354.45 379.562 354.45C390.93 354.45 400.146 363.666 400.146 375.034Z" fill="#E9EFFF"/>
<path d="M605.158 526.941C605.158 538.309 595.943 547.525 584.575 547.525C573.207 547.525 563.991 538.309 563.991 526.941C563.991 515.573 573.207 506.357 584.575 506.357C595.943 506.357 605.158 515.573 605.158 526.941Z" fill="#E9EFFF"/>
<path d="M195.133 223.127C195.133 234.495 185.917 243.71 174.549 243.71C163.181 243.71 153.965 234.495 153.965 223.127C153.965 211.759 163.181 202.543 174.549 202.543C185.917 202.543 195.133 211.759 195.133 223.127Z" fill="#E9EFFF"/>
<path d="M789.588 729.484C789.588 740.852 780.372 750.068 769.004 750.068C757.636 750.068 748.42 740.852 748.42 729.484C748.42 718.116 757.636 708.9 769.004 708.9C780.372 708.9 789.588 718.116 789.588 729.484Z" fill="#E9EFFF"/>
<path d="M379.562 425.67C379.562 437.038 370.346 446.253 358.978 446.253C347.61 446.253 338.395 437.038 338.395 425.67C338.395 414.302 347.61 405.086 358.978 405.086C370.346 405.086 379.562 414.302 379.562 425.67Z" fill="#E9EFFF"/>
<path d="M584.575 577.577C584.575 588.945 575.359 598.16 563.991 598.16C552.623 598.16 543.408 588.945 543.408 577.577C543.408 566.209 552.623 556.993 563.991 556.993C575.359 556.993 584.575 566.209 584.575 577.577Z" fill="#E9EFFF"/>
<path d="M174.549 273.762C174.549 285.13 165.334 294.346 153.966 294.346C142.598 294.346 133.382 285.13 133.382 273.762C133.382 262.394 142.598 253.179 153.966 253.179C165.334 253.179 174.549 262.394 174.549 273.762Z" fill="#E9EFFF"/>
<path d="M769.004 780.12C769.004 791.488 759.789 800.703 748.421 800.703C737.053 800.703 727.837 791.488 727.837 780.12C727.837 768.752 737.053 759.536 748.421 759.536C759.789 759.536 769.004 768.752 769.004 780.12Z" fill="#E9EFFF"/>
<path d="M358.978 476.305C358.978 487.673 349.763 496.889 338.395 496.889C327.027 496.889 317.811 487.673 317.811 476.305C317.811 464.937 327.027 455.722 338.395 455.722C349.763 455.722 358.978 464.937 358.978 476.305Z" fill="#E9EFFF"/>
<path d="M563.992 628.213C563.992 639.581 554.776 648.796 543.408 648.796C532.04 648.796 522.824 639.581 522.824 628.213C522.824 616.845 532.04 607.629 543.408 607.629C554.776 607.629 563.992 616.845 563.992 628.213Z" fill="#E9EFFF"/>
<path d="M153.965 324.398C153.965 335.766 144.75 344.982 133.382 344.982C122.014 344.982 112.798 335.766 112.798 324.398C112.798 313.03 122.014 303.814 133.382 303.814C144.75 303.814 153.965 313.03 153.965 324.398Z" fill="#E9EFFF"/>
<path d="M866.571 678.848C866.571 690.216 857.355 699.432 845.987 699.432C834.619 699.432 825.403 690.216 825.403 678.848C825.403 667.48 834.619 658.265 845.987 658.265C857.355 658.265 866.571 667.48 866.571 678.848Z" fill="#E9EFFF"/>
<path d="M456.545 375.034C456.545 386.402 447.329 395.617 435.961 395.617C424.593 395.617 415.378 386.402 415.378 375.034C415.378 363.666 424.593 354.45 435.961 354.45C447.329 354.45 456.545 363.666 456.545 375.034Z" fill="#E9EFFF"/>
<path d="M661.557 526.941C661.557 538.309 652.342 547.525 640.974 547.525C629.606 547.525 620.39 538.309 620.39 526.941C620.39 515.573 629.606 506.357 640.974 506.357C652.342 506.357 661.557 515.573 661.557 526.941Z" fill="#E9EFFF"/>
<path d="M251.532 223.127C251.532 234.495 242.316 243.71 230.948 243.71C219.58 243.71 210.364 234.495 210.364 223.127C210.364 211.759 219.58 202.543 230.948 202.543C242.316 202.543 251.532 211.759 251.532 223.127Z" fill="#E9EFFF"/>
<path d="M845.987 729.484C845.987 740.852 836.772 750.068 825.404 750.068C814.036 750.068 804.82 740.852 804.82 729.484C804.82 718.116 814.036 708.9 825.404 708.9C836.772 708.9 845.987 718.116 845.987 729.484Z" fill="#E9EFFF"/>
<path d="M435.961 425.67C435.961 437.038 426.746 446.253 415.378 446.253C404.01 446.253 394.794 437.038 394.794 425.67C394.794 414.302 404.01 405.086 415.378 405.086C426.746 405.086 435.961 414.302 435.961 425.67Z" fill="#E9EFFF"/>
<path d="M640.974 577.577C640.974 588.945 631.758 598.16 620.39 598.16C609.022 598.16 599.807 588.945 599.807 577.577C599.807 566.209 609.022 556.993 620.39 556.993C631.758 556.993 640.974 566.209 640.974 577.577Z" fill="#E9EFFF"/>
<path d="M230.948 273.762C230.948 285.13 221.733 294.346 210.365 294.346C198.997 294.346 189.781 285.13 189.781 273.762C189.781 262.394 198.997 253.179 210.365 253.179C221.733 253.179 230.948 262.394 230.948 273.762Z" fill="#E9EFFF"/>
<path d="M825.403 780.12C825.403 791.488 816.188 800.703 804.82 800.703C793.452 800.703 784.236 791.488 784.236 780.12C784.236 768.752 793.452 759.536 804.82 759.536C816.188 759.536 825.403 768.752 825.403 780.12Z" fill="#E9EFFF"/>
<path d="M415.377 476.305C415.377 487.673 406.162 496.889 394.794 496.889C383.426 496.889 374.21 487.673 374.21 476.305C374.21 464.937 383.426 455.722 394.794 455.722C406.162 455.722 415.377 464.937 415.377 476.305Z" fill="#E9EFFF"/>
<path d="M620.391 628.213C620.391 639.581 611.175 648.796 599.807 648.796C588.439 648.796 579.224 639.581 579.224 628.213C579.224 616.845 588.439 607.629 599.807 607.629C611.175 607.629 620.391 616.845 620.391 628.213Z" fill="#E9EFFF"/>
<path d="M210.365 324.398C210.365 335.766 201.149 344.982 189.781 344.982C178.413 344.982 169.198 335.766 169.198 324.398C169.198 313.03 178.413 303.814 189.781 303.814C201.149 303.814 210.365 313.03 210.365 324.398Z" fill="#E9EFFF"/>
<path d="M697.373 678.848C697.373 690.216 688.158 699.432 676.79 699.432C665.422 699.432 656.206 690.216 656.206 678.848C656.206 667.48 665.422 658.265 676.79 658.265C688.158 658.265 697.373 667.48 697.373 678.848Z" fill="#E9EFFF"/>
<path d="M287.347 375.034C287.347 386.402 278.132 395.617 266.764 395.617C255.396 395.617 246.18 386.402 246.18 375.034C246.18 363.666 255.396 354.45 266.764 354.45C278.132 354.45 287.347 363.666 287.347 375.034Z" fill="#E9EFFF"/>
<path d="M492.36 526.941C492.36 538.309 483.145 547.525 471.777 547.525C460.409 547.525 451.193 538.309 451.193 526.941C451.193 515.573 460.409 506.357 471.777 506.357C483.145 506.357 492.36 515.573 492.36 526.941Z" fill="#E9EFFF"/>
<path d="M82.3347 223.127C82.3347 234.495 73.1191 243.71 61.7511 243.71C50.383 243.71 41.1674 234.495 41.1674 223.127C41.1674 211.759 50.383 202.543 61.7511 202.543C73.1191 202.543 82.3347 211.759 82.3347 223.127Z" fill="#E9EFFF"/>
<path d="M676.79 729.484C676.79 740.852 667.574 750.068 656.206 750.068C644.838 750.068 635.622 740.852 635.622 729.484C635.622 718.116 644.838 708.9 656.206 708.9C667.574 708.9 676.79 718.116 676.79 729.484Z" fill="#E9EFFF"/>
<path d="M266.764 425.67C266.764 437.038 257.548 446.253 246.18 446.253C234.812 446.253 225.597 437.038 225.597 425.67C225.597 414.302 234.812 405.086 246.18 405.086C257.548 405.086 266.764 414.302 266.764 425.67Z" fill="#E9EFFF"/>
<path d="M471.777 577.577C471.777 588.945 462.561 598.16 451.193 598.16C439.825 598.16 430.61 588.945 430.61 577.577C430.61 566.209 439.825 556.993 451.193 556.993C462.561 556.993 471.777 566.209 471.777 577.577Z" fill="#E9EFFF"/>
<path d="M61.7507 273.762C61.7507 285.13 52.5351 294.346 41.167 294.346C29.799 294.346 20.5834 285.13 20.5834 273.762C20.5834 262.394 29.799 253.179 41.167 253.179C52.5351 253.179 61.7507 262.394 61.7507 273.762Z" fill="#E9EFFF"/>
<path d="M656.206 780.12C656.206 791.488 646.991 800.703 635.623 800.703C624.255 800.703 615.039 791.488 615.039 780.12C615.039 768.752 624.255 759.536 635.623 759.536C646.991 759.536 656.206 768.752 656.206 780.12Z" fill="#E9EFFF"/>
<path d="M246.18 476.305C246.18 487.673 236.965 496.889 225.597 496.889C214.229 496.889 205.013 487.673 205.013 476.305C205.013 464.937 214.229 455.722 225.597 455.722C236.965 455.722 246.18 464.937 246.18 476.305Z" fill="#E9EFFF"/>
<path d="M451.193 628.213C451.193 639.581 441.977 648.796 430.609 648.796C419.241 648.796 410.026 639.581 410.026 628.213C410.026 616.845 419.241 607.629 430.609 607.629C441.977 607.629 451.193 616.845 451.193 628.213Z" fill="#E9EFFF"/>
<path d="M922.97 678.848C922.97 690.216 913.754 699.432 902.386 699.432C891.018 699.432 881.802 690.216 881.802 678.848C881.802 667.48 891.018 658.265 902.386 658.265C913.754 658.265 922.97 667.48 922.97 678.848Z" fill="#E9EFFF"/>
<path d="M512.944 375.034C512.944 386.402 503.728 395.617 492.36 395.617C480.992 395.617 471.776 386.402 471.776 375.034C471.776 363.666 480.992 354.45 492.36 354.45C503.728 354.45 512.944 363.666 512.944 375.034Z" fill="#E9EFFF"/>
<path d="M717.957 526.941C717.957 538.309 708.742 547.525 697.374 547.525C686.006 547.525 676.79 538.309 676.79 526.941C676.79 515.573 686.006 506.357 697.374 506.357C708.742 506.357 717.957 515.573 717.957 526.941Z" fill="#E9EFFF"/>
<path d="M307.931 223.127C307.931 234.495 298.716 243.71 287.348 243.71C275.98 243.71 266.764 234.495 266.764 223.127C266.764 211.759 275.98 202.543 287.348 202.543C298.716 202.543 307.931 211.759 307.931 223.127Z" fill="#E9EFFF"/>
<path d="M902.386 729.484C902.386 740.852 893.17 750.068 881.802 750.068C870.434 750.068 861.219 740.852 861.219 729.484C861.219 718.116 870.434 708.9 881.802 708.9C893.17 708.9 902.386 718.116 902.386 729.484Z" fill="#E9EFFF"/>
<path d="M492.36 425.67C492.36 437.038 483.145 446.253 471.777 446.253C460.409 446.253 451.193 437.038 451.193 425.67C451.193 414.302 460.409 405.086 471.777 405.086C483.145 405.086 492.36 414.302 492.36 425.67Z" fill="#E9EFFF"/>
<path d="M697.373 577.577C697.373 588.945 688.158 598.16 676.79 598.16C665.422 598.16 656.206 588.945 656.206 577.577C656.206 566.209 665.422 556.993 676.79 556.993C688.158 556.993 697.373 566.209 697.373 577.577Z" fill="#E9EFFF"/>
<path d="M287.347 273.762C287.347 285.13 278.132 294.346 266.764 294.346C255.396 294.346 246.18 285.13 246.18 273.762C246.18 262.394 255.396 253.179 266.764 253.179C278.132 253.179 287.347 262.394 287.347 273.762Z" fill="#E9EFFF"/>
<path d="M881.803 780.12C881.803 791.488 872.587 800.703 861.219 800.703C849.851 800.703 840.636 791.488 840.636 780.12C840.636 768.752 849.851 759.536 861.219 759.536C872.587 759.536 881.803 768.752 881.803 780.12Z" fill="#E9EFFF"/>
<path d="M471.777 476.305C471.777 487.673 462.561 496.889 451.193 496.889C439.825 496.889 430.61 487.673 430.61 476.305C430.61 464.937 439.825 455.722 451.193 455.722C462.561 455.722 471.777 464.937 471.777 476.305Z" fill="#E9EFFF"/>
<path d="M676.79 628.213C676.79 639.581 667.574 648.796 656.206 648.796C644.838 648.796 635.622 639.581 635.622 628.213C635.622 616.845 644.838 607.629 656.206 607.629C667.574 607.629 676.79 616.845 676.79 628.213Z" fill="#E9EFFF"/>
<path d="M266.764 324.398C266.764 335.766 257.548 344.982 246.18 344.982C234.812 344.982 225.597 335.766 225.597 324.398C225.597 313.03 234.812 303.814 246.18 303.814C257.548 303.814 266.764 313.03 266.764 324.398Z" fill="#E9EFFF"/>
<path d="M994.601 780.12C994.601 791.488 985.385 800.703 974.017 800.703C962.649 800.703 953.434 791.488 953.434 780.12C953.434 768.752 962.649 759.536 974.017 759.536C985.385 759.536 994.601 768.752 994.601 780.12Z" fill="#E9EFFF"/>
<path d="M584.575 476.305C584.575 487.673 575.359 496.889 563.991 496.889C552.623 496.889 543.408 487.673 543.408 476.305C543.408 464.937 552.623 455.722 563.991 455.722C575.359 455.722 584.575 464.937 584.575 476.305Z" fill="#E9EFFF"/>
<path d="M789.588 628.213C789.588 639.581 780.372 648.796 769.004 648.796C757.636 648.796 748.42 639.581 748.42 628.213C748.42 616.845 757.636 607.629 769.004 607.629C780.372 607.629 789.588 616.845 789.588 628.213Z" fill="#E9EFFF"/>
<path d="M379.562 324.398C379.562 335.766 370.346 344.982 358.978 344.982C347.61 344.982 338.395 335.766 338.395 324.398C338.395 313.03 347.61 303.814 358.978 303.814C370.346 303.814 379.562 313.03 379.562 324.398Z" fill="#E9EFFF"/>
<path d="M753.773 678.848C753.773 690.216 744.557 699.432 733.189 699.432C721.821 699.432 712.605 690.216 712.605 678.848C712.605 667.48 721.821 658.265 733.189 658.265C744.557 658.265 753.773 667.48 753.773 678.848Z" fill="#E9EFFF"/>
<path d="M343.747 375.034C343.747 386.402 334.531 395.617 323.163 395.617C311.795 395.617 302.58 386.402 302.58 375.034C302.58 363.666 311.795 354.45 323.163 354.45C334.531 354.45 343.747 363.666 343.747 375.034Z" fill="#E9EFFF"/>
<path d="M548.759 526.941C548.759 538.309 539.544 547.525 528.176 547.525C516.808 547.525 507.592 538.309 507.592 526.941C507.592 515.573 516.808 506.357 528.176 506.357C539.544 506.357 548.759 515.573 548.759 526.941Z" fill="#E9EFFF"/>
<path d="M138.734 223.127C138.734 234.495 129.518 243.71 118.15 243.71C106.782 243.71 97.5664 234.495 97.5664 223.127C97.5664 211.759 106.782 202.543 118.15 202.543C129.518 202.543 138.734 211.759 138.734 223.127Z" fill="#E9EFFF"/>
<path d="M733.189 729.484C733.189 740.852 723.973 750.068 712.605 750.068C701.237 750.068 692.021 740.852 692.021 729.484C692.021 718.116 701.237 708.9 712.605 708.9C723.973 708.9 733.189 718.116 733.189 729.484Z" fill="#E9EFFF"/>
<path d="M323.163 425.67C323.163 437.038 313.947 446.253 302.579 446.253C291.211 446.253 281.996 437.038 281.996 425.67C281.996 414.302 291.211 405.086 302.579 405.086C313.947 405.086 323.163 414.302 323.163 425.67Z" fill="#E9EFFF"/>
<path d="M528.176 577.577C528.176 588.945 518.96 598.16 507.592 598.16C496.224 598.16 487.009 588.945 487.009 577.577C487.009 566.209 496.224 556.993 507.592 556.993C518.96 556.993 528.176 566.209 528.176 577.577Z" fill="#E9EFFF"/>
<path d="M118.15 273.762C118.15 285.13 108.935 294.346 97.5667 294.346C86.1986 294.346 76.983 285.13 76.983 273.762C76.983 262.394 86.1986 253.179 97.5667 253.179C108.935 253.179 118.15 262.394 118.15 273.762Z" fill="#E9EFFF"/>
<path d="M712.605 780.12C712.605 791.488 703.39 800.703 692.022 800.703C680.654 800.703 671.438 791.488 671.438 780.12C671.438 768.752 680.654 759.536 692.022 759.536C703.39 759.536 712.605 768.752 712.605 780.12Z" fill="#E9EFFF"/>
<path d="M302.579 476.305C302.579 487.673 293.364 496.889 281.996 496.889C270.628 496.889 261.412 487.673 261.412 476.305C261.412 464.937 270.628 455.722 281.996 455.722C293.364 455.722 302.579 464.937 302.579 476.305Z" fill="#E9EFFF"/>
<path d="M507.592 628.213C507.592 639.581 498.376 648.796 487.008 648.796C475.64 648.796 466.425 639.581 466.425 628.213C466.425 616.845 475.64 607.629 487.008 607.629C498.376 607.629 507.592 616.845 507.592 628.213Z" fill="#E9EFFF"/>
<path d="M97.5663 324.398C97.5663 335.766 88.3506 344.982 76.9826 344.982C65.6146 344.982 56.399 335.766 56.399 324.398C56.399 313.03 65.6146 303.814 76.9826 303.814C88.3506 303.814 97.5663 313.03 97.5663 324.398Z" fill="#E9EFFF"/>
<path d="M41.1673 324.398C41.1673 335.766 31.9516 344.982 20.5836 344.982C9.2156 344.982 0 335.766 0 324.398C0 313.03 9.2156 303.814 20.5836 303.814C31.9516 303.814 41.1673 313.03 41.1673 324.398Z" fill="#E9EFFF"/>
</svg>
