<svg width="42" height="42" viewBox="0 0 42 42" fill="none" xmlns="http://www.w3.org/2000/svg">
<path d="M21 29V13M13 25V17M29 25V17M31 3.67602C27.961 1.91783 24.511 0.994614 21 1.00002C9.954 1.00002 1 9.95402 1 21C1 24.2 1.752 27.224 3.086 29.906C3.442 30.618 3.56 31.432 3.354 32.202L2.164 36.654C2.04658 37.0945 2.04702 37.5581 2.16528 37.9983C2.28354 38.4385 2.51546 38.8399 2.83778 39.1622C3.16011 39.4846 3.56151 39.7165 4.00174 39.8347C4.44196 39.953 4.90555 39.9534 5.346 39.836L9.798 38.646C10.5708 38.4515 11.3881 38.5461 12.096 38.912C14.8618 40.2893 17.9102 41.0041 21 41C32.046 41 41 32.046 41 21C41 17.358 40.026 13.94 38.324 11" stroke="#999999" stroke-width="1.5" stroke-linecap="round"/>
</svg>
