<svg width="38" height="50" viewBox="0 0 38 50" fill="none" xmlns="http://www.w3.org/2000/svg">
<path d="M19.2625 9.69346C19.2188 9.59842 19.1488 9.51791 19.0607 9.46147C18.9727 9.40503 18.8703 9.37503 18.7657 9.37503C18.6611 9.37503 18.5586 9.40503 18.4706 9.46147C18.3825 9.51791 18.3125 9.59842 18.2688 9.69346L16.0313 14.5466C15.992 14.6311 15.9317 14.7042 15.8563 14.7589C15.7808 14.8136 15.6926 14.8481 15.6 14.8591L10.2906 15.4903C10.1871 15.5029 10.0893 15.5448 10.0088 15.6111C9.92831 15.6773 9.86843 15.7653 9.83624 15.8645C9.80405 15.9636 9.80089 16.07 9.82714 16.1709C9.85339 16.2718 9.90796 16.3632 9.9844 16.4341L13.9094 20.0622C13.9784 20.1258 14.0298 20.206 14.0588 20.2952C14.0878 20.3845 14.0934 20.4796 14.075 20.5716L13.0313 25.8122C13.0108 25.9147 13.0202 26.0209 13.0582 26.1182C13.0962 26.2156 13.1613 26.3 13.2458 26.3614C13.3303 26.4229 13.4307 26.4589 13.535 26.4651C13.6393 26.4714 13.7432 26.4476 13.8344 26.3966L18.5 23.7872C18.5813 23.7421 18.6727 23.7184 18.7657 23.7184C18.8586 23.7184 18.95 23.7421 19.0313 23.7872L23.6969 26.3966C24.1032 26.6247 24.5907 26.2716 24.5 25.8122L23.4594 20.5716C23.441 20.4796 23.4466 20.3845 23.4756 20.2952C23.5046 20.206 23.5561 20.1258 23.625 20.0622L27.5469 16.4341C27.6234 16.3632 27.6779 16.2718 27.7042 16.1709C27.7304 16.07 27.7273 15.9636 27.6951 15.8645C27.6629 15.7653 27.603 15.6773 27.5225 15.6111C27.442 15.5448 27.3442 15.5029 27.2407 15.4903L21.9344 14.8591C21.8413 14.8486 21.7525 14.8143 21.6764 14.7596C21.6003 14.7049 21.5396 14.6315 21.5 14.5466L19.2625 9.69346ZM37.5001 18.7497C37.503 21.3882 36.9476 23.9974 35.8704 26.406C34.7932 28.8146 33.2186 30.968 31.2501 32.7247V48.4373C31.25 48.7109 31.178 48.9797 31.0414 49.2168C30.9048 49.4539 30.7084 49.6509 30.4717 49.7883C30.235 49.9256 29.9665 49.9983 29.6928 49.9993C29.4192 50.0002 29.1501 49.9292 28.9125 49.7935L18.75 43.9873L8.58752 49.7935C8.34993 49.9292 8.08086 50.0002 7.80724 49.9993C7.53362 49.9983 7.26503 49.9256 7.02836 49.7883C6.79169 49.6509 6.59523 49.4539 6.45864 49.2168C6.32204 48.9797 6.2501 48.7109 6.25001 48.4373V32.7247C3.91881 30.6397 2.14622 28.0045 1.09366 25.0593C0.0411084 22.1141 -0.257979 18.9524 0.223638 15.862C0.705255 12.7717 1.95227 9.85093 3.85115 7.36568C5.75002 4.88044 8.24041 2.90968 11.0956 1.63286C13.9507 0.356036 17.0799 -0.186284 20.1982 0.0552808C23.3165 0.296846 26.3248 1.31462 28.9493 3.01593C31.5737 4.71724 33.7309 7.04803 35.2244 9.79607C36.7178 12.5441 37.5001 15.6221 37.5001 18.7497ZM18.75 37.4998C15.4584 37.5045 12.2241 36.6388 9.37502 34.9904V45.7466L17.975 40.831C18.2111 40.6962 18.4782 40.6253 18.75 40.6253C19.0219 40.6253 19.289 40.6962 19.525 40.831L28.125 45.7498V34.9935C25.2757 36.641 22.0414 37.5056 18.75 37.4998ZM18.75 34.3747C22.894 34.3747 26.8683 32.7285 29.7986 29.7983C32.7289 26.868 34.3751 22.8937 34.3751 18.7497C34.3751 14.6057 32.7289 10.6314 29.7986 7.70117C26.8683 4.77091 22.894 3.1247 18.75 3.1247C14.606 3.1247 10.6317 4.77091 7.70147 7.70117C4.77121 10.6314 3.12501 14.6057 3.12501 18.7497C3.12501 22.8937 4.77121 26.868 7.70147 29.7983C10.6317 32.7285 14.606 34.3747 18.75 34.3747Z" fill="#999999"/>
</svg>
