<svg width="50" height="51" viewBox="0 0 50 51" fill="none" xmlns="http://www.w3.org/2000/svg">
<path d="M25 14.0807C22.7179 14.0807 20.4871 14.7574 18.5896 16.0253C16.6921 17.2931 15.2132 19.0952 14.3399 21.2036C13.4665 23.3119 13.238 25.6319 13.6832 27.8702C14.1285 30.1084 15.2274 32.1644 16.8411 33.7781C18.4548 35.3917 20.5107 36.4907 22.749 36.9359C24.9872 37.3811 27.3072 37.1526 29.4156 36.2793C31.524 35.406 33.326 33.9271 34.5939 32.0296C35.8617 30.1321 36.5385 27.9012 36.5385 25.6191C36.5353 22.5599 35.3186 19.6269 33.1554 17.4637C30.9922 15.3005 28.0592 14.0839 25 14.0807ZM25 33.3114C23.4786 33.3114 21.9914 32.8603 20.7264 32.0151C19.4614 31.1698 18.4754 29.9684 17.8932 28.5629C17.311 27.1573 17.1587 25.6106 17.4555 24.1184C17.7523 22.6263 18.4849 21.2556 19.5607 20.1799C20.6365 19.1041 22.0071 18.3714 23.4993 18.0746C24.9915 17.7778 26.5381 17.9302 27.9437 18.5124C29.3493 19.0946 30.5507 20.0805 31.3959 21.3455C32.2412 22.6105 32.6923 24.0977 32.6923 25.6191C32.6923 27.6593 31.8819 29.6158 30.4393 31.0584C28.9967 32.501 27.0401 33.3114 25 33.3114ZM36.5385 0.619141H13.4615C9.89249 0.622958 6.47071 2.04245 3.94701 4.56615C1.42331 7.08985 0.00381785 10.5116 0 14.0807V37.1576C0.00381785 40.7267 1.42331 44.1484 3.94701 46.6721C6.47071 49.1958 9.89249 50.6153 13.4615 50.6191H36.5385C40.1075 50.6153 43.5293 49.1958 46.053 46.6721C48.5767 44.1484 49.9962 40.7267 50 37.1576V14.0807C49.9962 10.5116 48.5767 7.08985 46.053 4.56615C43.5293 2.04245 40.1075 0.622958 36.5385 0.619141ZM46.1538 37.1576C46.1538 39.7078 45.1408 42.1535 43.3376 43.9567C41.5343 45.7599 39.0886 46.773 36.5385 46.773H13.4615C10.9114 46.773 8.46567 45.7599 6.66243 43.9567C4.8592 42.1535 3.84615 39.7078 3.84615 37.1576V14.0807C3.84615 11.5305 4.8592 9.08481 6.66243 7.28158C8.46567 5.47834 10.9114 4.46529 13.4615 4.46529H36.5385C39.0886 4.46529 41.5343 5.47834 43.3376 7.28158C45.1408 9.08481 46.1538 11.5305 46.1538 14.0807V37.1576ZM40.3846 13.1191C40.3846 13.6897 40.2154 14.2474 39.8985 14.7217C39.5815 15.1961 39.131 15.5658 38.6039 15.7842C38.0768 16.0025 37.4968 16.0596 36.9372 15.9483C36.3777 15.837 35.8637 15.5623 35.4603 15.1589C35.0569 14.7555 34.7821 14.2415 34.6708 13.6819C34.5595 13.1223 34.6166 12.5423 34.835 12.0152C35.0533 11.4882 35.423 11.0376 35.8974 10.7207C36.3718 10.4037 36.9295 10.2345 37.5 10.2345C38.265 10.2345 38.9988 10.5384 39.5397 11.0794C40.0807 11.6204 40.3846 12.3541 40.3846 13.1191Z" fill="#777777"/>
</svg>
