<svg width="44" height="62" viewBox="0 0 44 62" fill="none" xmlns="http://www.w3.org/2000/svg">
<path d="M42 21.8413C42 32.908 22 59.6191 22 59.6191C22 59.6191 2 32.908 2 21.8413C2 16.537 4.10714 11.4499 7.85786 7.69917C11.6086 3.94845 16.6957 1.84131 22 1.84131C27.3043 1.84131 32.3914 3.94845 36.1421 7.69917C39.8929 11.4499 42 16.537 42 21.8413Z" stroke="#999999" stroke-width="3" stroke-linecap="round" stroke-linejoin="round"/>
<path d="M22 28.508C25.6819 28.508 28.6667 25.5233 28.6667 21.8414C28.6667 18.1595 25.6819 15.1747 22 15.1747C18.3181 15.1747 15.3333 18.1595 15.3333 21.8414C15.3333 25.5233 18.3181 28.508 22 28.508Z" stroke="#999999" stroke-width="3" stroke-linecap="round" stroke-linejoin="round"/>
</svg>
