<svg width="50" height="51" viewBox="0 0 50 51" fill="none" xmlns="http://www.w3.org/2000/svg">
<path d="M25 0.619141C11.2167 0.619141 0 11.8358 0 25.6191C0 39.4025 11.2167 50.6191 25 50.6191C38.7833 50.6191 50 39.4025 50 25.6191C50 11.8358 38.7833 0.619141 25 0.619141ZM25 4.78581C36.5312 4.78581 45.8333 14.0879 45.8333 25.6191C45.8384 30.6066 44.05 35.4295 40.7945 39.2079C37.5389 42.9862 33.0334 45.468 28.1 46.2004V31.6941H34.0333L34.9646 25.6671H28.1V22.3754C28.1 19.8754 28.9229 17.6525 31.2625 17.6525H35.0229V12.3941C34.3625 12.3046 32.9646 12.1108 30.3229 12.1108C24.8062 12.1108 21.5729 15.0233 21.5729 21.6608V25.6671H15.9021V31.6941H21.5729V46.1483C16.7078 45.3476 12.2859 42.8431 9.09727 39.0824C5.90864 35.3216 4.16102 30.5497 4.16667 25.6191C4.16667 14.0879 13.4687 4.78581 25 4.78581Z" fill="#777777"/>
</svg>
