<svg width="40" height="41" viewBox="0 0 40 41" fill="none" xmlns="http://www.w3.org/2000/svg">
<path d="M24.5309 3.38156C24.5724 3.22606 24.6441 3.08026 24.7419 2.9525C24.8398 2.82473 24.9619 2.71751 25.1012 2.63695C25.2405 2.5564 25.3943 2.50409 25.5538 2.48303C25.7134 2.46197 25.8755 2.47256 26.031 2.5142C28.9885 3.28568 31.6869 4.8317 33.8482 6.99299C36.0095 9.15428 37.5556 11.8527 38.327 14.8103C38.3687 14.9657 38.3793 15.1278 38.3582 15.2874C38.3371 15.4469 38.2848 15.6008 38.2043 15.7401C38.1237 15.8794 38.0165 16.0014 37.8887 16.0993C37.761 16.1971 37.6152 16.2688 37.4597 16.3103C37.3565 16.3378 37.2501 16.3515 37.1433 16.3511C36.8736 16.3513 36.6113 16.2623 36.3972 16.0981C36.1832 15.9339 36.0294 15.7036 35.9597 15.4429C35.2973 12.9025 33.9695 10.5846 32.1131 8.72815C30.2567 6.87172 27.9388 5.54391 25.3983 4.88157C25.2428 4.84012 25.097 4.76842 24.9692 4.67057C24.8415 4.57273 24.7343 4.45066 24.6537 4.31135C24.5731 4.17204 24.5208 4.01821 24.4998 3.85867C24.4787 3.69913 24.4893 3.537 24.5309 3.38156ZM23.7656 11.4123C26.7351 12.2041 28.6371 14.1062 29.429 17.0756C29.4987 17.3362 29.6525 17.5666 29.8665 17.7308C30.0806 17.895 30.3429 17.9839 30.6127 17.9838C30.7194 17.9842 30.8258 17.9704 30.929 17.943C31.0845 17.9015 31.2303 17.8298 31.358 17.732C31.4858 17.6341 31.593 17.5121 31.6736 17.3727C31.7541 17.2334 31.8064 17.0796 31.8275 16.9201C31.8486 16.7605 31.838 16.5984 31.7963 16.4429C30.7759 12.6245 28.2167 10.0653 24.3983 9.04489C24.2428 9.00335 24.0807 8.99283 23.9212 9.01394C23.7617 9.03505 23.6079 9.08737 23.4686 9.16791C23.1873 9.33057 22.9822 9.59832 22.8983 9.91225C22.8144 10.2262 22.8586 10.5606 23.0213 10.8419C23.1839 11.1232 23.4517 11.3284 23.7656 11.4123ZM39.9781 31.2084C39.6284 33.8763 38.3192 36.3255 36.2951 38.0983C34.271 39.8711 31.6706 40.8462 28.98 40.8412C13.0002 40.8412 2.03517e-05 27.841 2.03517e-05 11.8613C-0.00513432 9.17151 0.969052 6.57187 2.74061 4.54793C4.51217 2.524 6.95993 1.21418 9.62667 0.863156C10.2406 0.788554 10.8621 0.915134 11.3979 1.22388C11.9337 1.53264 12.3549 2.00689 12.5981 2.57542L16.9043 12.1878C17.0944 12.623 17.1731 13.0986 17.1332 13.5719C17.0933 14.0451 16.9361 14.5009 16.6757 14.898C16.6495 14.9385 16.6209 14.9773 16.59 15.0144L12.29 20.1287C12.2639 20.1817 12.2503 20.24 12.2503 20.2991C12.2503 20.3582 12.2639 20.4165 12.29 20.4695C13.8533 23.6696 17.2084 27.0002 20.4533 28.5615C20.5075 28.5862 20.5667 28.5979 20.6262 28.5958C20.6857 28.5937 20.7439 28.5777 20.7962 28.5492L25.835 24.2635C25.871 24.2321 25.9092 24.2035 25.9493 24.1777C26.3447 23.9141 26.7997 23.7533 27.2729 23.7098C27.7461 23.6663 28.2227 23.7416 28.6596 23.9288L38.3005 28.2492C38.8615 28.4978 39.3275 28.9204 39.6296 29.4545C39.9318 29.9885 40.0539 30.6057 39.9781 31.2146V31.2084ZM37.5515 30.9064C37.5584 30.8211 37.5382 30.7357 37.4939 30.6625C37.4496 30.5892 37.3833 30.5318 37.3046 30.4982L27.6616 26.1778C27.6089 26.1574 27.5525 26.1487 27.4961 26.1523C27.4397 26.1558 27.3848 26.1714 27.3351 26.1982L22.2983 30.4839C22.2615 30.5146 22.2227 30.5431 22.184 30.5697C21.7731 30.8436 21.2983 31.0064 20.8058 31.0422C20.3132 31.078 19.8199 30.9855 19.3737 30.7737C15.6267 28.9635 11.892 25.2635 10.0818 21.5512C9.86887 21.1076 9.77409 20.6167 9.80663 20.1257C9.83917 19.6348 9.99791 19.1606 10.2675 18.7491C10.2938 18.7082 10.3231 18.6693 10.3553 18.6328L14.6533 13.5184C14.6778 13.465 14.6905 13.4068 14.6905 13.348C14.6905 13.2892 14.6778 13.2311 14.6533 13.1776L10.3553 3.55707C10.3269 3.47986 10.2759 3.41302 10.2088 3.36531C10.1418 3.3176 10.062 3.29125 9.97974 3.28972H9.9328C7.85714 3.56583 5.95295 4.58798 4.57578 6.16532C3.19862 7.74266 2.44264 9.76733 2.44903 11.8613C2.44903 26.49 14.3512 38.3922 28.98 38.3922C31.0742 38.3985 33.0991 37.6423 34.6765 36.2647C36.2539 34.8871 37.2759 32.9824 37.5515 30.9064Z" fill="#999999"/>
</svg>
